<mxfile host="app.diagrams.net" agent="Mozilla/5.0 (Macintosh; Intel Mac OS X 10_15_7) AppleWebKit/537.36 (KHTML, like Gecko) Chrome/126.0.0.0 Safari/537.36" version="24.7.6" pages="2">
  <diagram name="Page-1" id="2_cg7SoRQCbkAo97eh9O">
    <mxGraphModel dx="2284" dy="940" grid="1" gridSize="10" guides="1" tooltips="1" connect="1" arrows="1" fold="1" page="1" pageScale="1" pageWidth="850" pageHeight="1100" math="0" shadow="0">
      <root>
        <mxCell id="0" />
        <mxCell id="1" parent="0" />
        <mxCell id="ery8SQ_gEW115RbnEJ9j-1" value="Tool and Interface Generation" style="ellipse;whiteSpace=wrap;html=1;fillColor=#dae8fc;strokeColor=#6c8ebf;fontStyle=1" vertex="1" parent="1">
          <mxGeometry x="-60" y="290" width="100" height="80" as="geometry" />
        </mxCell>
        <mxCell id="ery8SQ_gEW115RbnEJ9j-2" value="Path to Library to&lt;div&gt;be intercepted&lt;/div&gt;" style="shape=parallelogram;perimeter=parallelogramPerimeter;whiteSpace=wrap;html=1;fixedSize=1;fillColor=#d5e8d4;strokeColor=#82b366;fontStyle=1" vertex="1" parent="1">
          <mxGeometry x="60" y="300" width="130" height="60" as="geometry" />
        </mxCell>
        <mxCell id="ery8SQ_gEW115RbnEJ9j-3" value="" style="endArrow=classic;html=1;rounded=0;exitX=1;exitY=0.5;exitDx=0;exitDy=0;entryX=0;entryY=0.5;entryDx=0;entryDy=0;fontStyle=1" edge="1" parent="1" source="ery8SQ_gEW115RbnEJ9j-2" target="ery8SQ_gEW115RbnEJ9j-6">
          <mxGeometry width="50" height="50" relative="1" as="geometry">
            <mxPoint x="400" y="510" as="sourcePoint" />
            <mxPoint x="240" y="240" as="targetPoint" />
            <Array as="points">
              <mxPoint x="200" y="330" />
              <mxPoint x="200" y="260" />
            </Array>
          </mxGeometry>
        </mxCell>
        <mxCell id="ery8SQ_gEW115RbnEJ9j-4" value="" style="endArrow=classic;html=1;rounded=0;exitX=1;exitY=0.5;exitDx=0;exitDy=0;entryX=0;entryY=0.5;entryDx=0;entryDy=0;fontStyle=1" edge="1" parent="1" source="ery8SQ_gEW115RbnEJ9j-1" target="ery8SQ_gEW115RbnEJ9j-2">
          <mxGeometry width="50" height="50" relative="1" as="geometry">
            <mxPoint x="170" y="340" as="sourcePoint" />
            <mxPoint x="250" y="250" as="targetPoint" />
          </mxGeometry>
        </mxCell>
        <mxCell id="ery8SQ_gEW115RbnEJ9j-5" value="Generate Interface" style="rounded=0;whiteSpace=wrap;html=1;fillColor=#d5e8d4;strokeColor=#82b366;fontStyle=1" vertex="1" parent="1">
          <mxGeometry x="220" y="370" width="120" height="60" as="geometry" />
        </mxCell>
        <mxCell id="ery8SQ_gEW115RbnEJ9j-6" value="Pre and Post&amp;nbsp;&lt;div&gt;Call functionalities&lt;/div&gt;" style="shape=parallelogram;perimeter=parallelogramPerimeter;whiteSpace=wrap;html=1;fixedSize=1;fillColor=#d5e8d4;strokeColor=#82b366;fontStyle=1" vertex="1" parent="1">
          <mxGeometry x="220" y="230" width="130" height="60" as="geometry" />
        </mxCell>
        <mxCell id="ery8SQ_gEW115RbnEJ9j-7" value="" style="endArrow=classic;html=1;rounded=0;exitX=1;exitY=0.5;exitDx=0;exitDy=0;entryX=0;entryY=0.5;entryDx=0;entryDy=0;fontStyle=1" edge="1" parent="1" source="ery8SQ_gEW115RbnEJ9j-2" target="ery8SQ_gEW115RbnEJ9j-5">
          <mxGeometry width="50" height="50" relative="1" as="geometry">
            <mxPoint x="170" y="340" as="sourcePoint" />
            <mxPoint x="250" y="250" as="targetPoint" />
            <Array as="points">
              <mxPoint x="200" y="330" />
              <mxPoint x="200" y="400" />
            </Array>
          </mxGeometry>
        </mxCell>
        <mxCell id="ery8SQ_gEW115RbnEJ9j-8" value="Link Application&lt;div&gt;with the Interface&lt;/div&gt;" style="rounded=0;whiteSpace=wrap;html=1;fillColor=#d5e8d4;strokeColor=#82b366;fontStyle=1" vertex="1" parent="1">
          <mxGeometry x="365" y="370" width="120" height="60" as="geometry" />
        </mxCell>
        <mxCell id="ery8SQ_gEW115RbnEJ9j-9" value="Generate Tools" style="rounded=0;whiteSpace=wrap;html=1;fillColor=#d5e8d4;strokeColor=#82b366;fontStyle=1" vertex="1" parent="1">
          <mxGeometry x="365" y="230" width="120" height="60" as="geometry" />
        </mxCell>
        <mxCell id="ery8SQ_gEW115RbnEJ9j-10" value="Set TOOLS environment variable" style="rounded=0;whiteSpace=wrap;html=1;fillColor=#d5e8d4;strokeColor=#82b366;fontStyle=1" vertex="1" parent="1">
          <mxGeometry x="530" y="300" width="120" height="60" as="geometry" />
        </mxCell>
        <mxCell id="ery8SQ_gEW115RbnEJ9j-11" value="Execute Application" style="ellipse;whiteSpace=wrap;html=1;fillColor=#dae8fc;strokeColor=#6c8ebf;fontStyle=1" vertex="1" parent="1">
          <mxGeometry x="680" y="290" width="80" height="80" as="geometry" />
        </mxCell>
        <mxCell id="ery8SQ_gEW115RbnEJ9j-12" value="" style="endArrow=classic;html=1;rounded=0;exitX=1;exitY=0.5;exitDx=0;exitDy=0;entryX=0;entryY=0.5;entryDx=0;entryDy=0;fontStyle=1" edge="1" parent="1" source="ery8SQ_gEW115RbnEJ9j-10" target="ery8SQ_gEW115RbnEJ9j-11">
          <mxGeometry width="50" height="50" relative="1" as="geometry">
            <mxPoint x="30" y="340" as="sourcePoint" />
            <mxPoint x="70" y="340" as="targetPoint" />
          </mxGeometry>
        </mxCell>
        <mxCell id="ery8SQ_gEW115RbnEJ9j-13" value="" style="endArrow=classic;html=1;rounded=0;exitX=1;exitY=0.5;exitDx=0;exitDy=0;entryX=0;entryY=0.5;entryDx=0;entryDy=0;fontStyle=1" edge="1" parent="1" source="ery8SQ_gEW115RbnEJ9j-6" target="ery8SQ_gEW115RbnEJ9j-9">
          <mxGeometry width="50" height="50" relative="1" as="geometry">
            <mxPoint x="40" y="350" as="sourcePoint" />
            <mxPoint x="80" y="350" as="targetPoint" />
          </mxGeometry>
        </mxCell>
        <mxCell id="ery8SQ_gEW115RbnEJ9j-14" value="" style="endArrow=classic;html=1;rounded=0;exitX=1;exitY=0.5;exitDx=0;exitDy=0;entryX=0;entryY=0.5;entryDx=0;entryDy=0;fontStyle=1" edge="1" parent="1" source="ery8SQ_gEW115RbnEJ9j-5" target="ery8SQ_gEW115RbnEJ9j-8">
          <mxGeometry width="50" height="50" relative="1" as="geometry">
            <mxPoint x="50" y="360" as="sourcePoint" />
            <mxPoint x="90" y="360" as="targetPoint" />
          </mxGeometry>
        </mxCell>
        <mxCell id="ery8SQ_gEW115RbnEJ9j-15" value="" style="endArrow=classic;html=1;rounded=0;exitX=1;exitY=0.5;exitDx=0;exitDy=0;entryX=0;entryY=0.5;entryDx=0;entryDy=0;fontStyle=1" edge="1" parent="1" source="ery8SQ_gEW115RbnEJ9j-8" target="ery8SQ_gEW115RbnEJ9j-10">
          <mxGeometry width="50" height="50" relative="1" as="geometry">
            <mxPoint x="60" y="370" as="sourcePoint" />
            <mxPoint x="100" y="370" as="targetPoint" />
            <Array as="points">
              <mxPoint x="510" y="400" />
              <mxPoint x="510" y="330" />
            </Array>
          </mxGeometry>
        </mxCell>
        <mxCell id="ery8SQ_gEW115RbnEJ9j-16" value="" style="endArrow=classic;html=1;rounded=0;exitX=1;exitY=0.5;exitDx=0;exitDy=0;entryX=0;entryY=0.5;entryDx=0;entryDy=0;fontStyle=1" edge="1" parent="1" source="ery8SQ_gEW115RbnEJ9j-9" target="ery8SQ_gEW115RbnEJ9j-10">
          <mxGeometry width="50" height="50" relative="1" as="geometry">
            <mxPoint x="70" y="380" as="sourcePoint" />
            <mxPoint x="110" y="380" as="targetPoint" />
            <Array as="points">
              <mxPoint x="510" y="260" />
              <mxPoint x="510" y="330" />
            </Array>
          </mxGeometry>
        </mxCell>
      </root>
    </mxGraphModel>
  </diagram>
  <diagram id="s2FKvbiQqiKHHkMkQanl" name="Page-2">
    <mxGraphModel dx="2284" dy="940" grid="1" gridSize="10" guides="1" tooltips="1" connect="1" arrows="1" fold="1" page="1" pageScale="1" pageWidth="850" pageHeight="1100" math="0" shadow="0">
      <root>
        <mxCell id="0" />
        <mxCell id="1" parent="0" />
        <mxCell id="-NhYSNLFKO5urr56oJyv-1" value="Register tools" style="rounded=0;whiteSpace=wrap;html=1;fillColor=#d5e8d4;strokeColor=#82b366;fontStyle=1" vertex="1" parent="1">
          <mxGeometry x="-10" y="410" width="70" height="60" as="geometry" />
        </mxCell>
        <mxCell id="-NhYSNLFKO5urr56oJyv-2" value="Execute Application" style="ellipse;whiteSpace=wrap;html=1;fillColor=#dae8fc;strokeColor=#6c8ebf;fontStyle=1" vertex="1" parent="1">
          <mxGeometry x="-120" y="400" width="80" height="80" as="geometry" />
        </mxCell>
        <mxCell id="WOuvjGhn44bi5tYToOCU-1" value="" style="endArrow=classic;html=1;rounded=0;exitX=1;exitY=0.5;exitDx=0;exitDy=0;entryX=0;entryY=0.5;entryDx=0;entryDy=0;fontStyle=1" edge="1" parent="1" source="-NhYSNLFKO5urr56oJyv-2" target="-NhYSNLFKO5urr56oJyv-1">
          <mxGeometry width="50" height="50" relative="1" as="geometry">
            <mxPoint x="650" y="330" as="sourcePoint" />
            <mxPoint x="680" y="330" as="targetPoint" />
          </mxGeometry>
        </mxCell>
        <mxCell id="8Qw6JCLBQOq7EYyBbXNo-1" value="Intercepted&amp;nbsp;&lt;div&gt;Function&lt;div&gt;List&lt;/div&gt;&lt;/div&gt;" style="shape=parallelogram;perimeter=parallelogramPerimeter;whiteSpace=wrap;html=1;fixedSize=1;fillColor=#d5e8d4;strokeColor=#82b366;fontStyle=1" vertex="1" parent="1">
          <mxGeometry x="-40" y="300" width="130" height="60" as="geometry" />
        </mxCell>
        <mxCell id="8Qw6JCLBQOq7EYyBbXNo-2" value="" style="endArrow=classic;html=1;rounded=0;exitX=0.5;exitY=1;exitDx=0;exitDy=0;entryX=0.5;entryY=0;entryDx=0;entryDy=0;fontStyle=1" edge="1" parent="1" source="8Qw6JCLBQOq7EYyBbXNo-1" target="-NhYSNLFKO5urr56oJyv-1">
          <mxGeometry width="50" height="50" relative="1" as="geometry">
            <mxPoint x="-50" y="450" as="sourcePoint" />
            <mxPoint y="450" as="targetPoint" />
          </mxGeometry>
        </mxCell>
        <mxCell id="8Qw6JCLBQOq7EYyBbXNo-3" value="Set up FLT&lt;div&gt;and other data struct and start&amp;nbsp; application&lt;/div&gt;" style="rounded=0;whiteSpace=wrap;html=1;fillColor=#d5e8d4;strokeColor=#82b366;fontStyle=1" vertex="1" parent="1">
          <mxGeometry x="100" y="400" width="120" height="80" as="geometry" />
        </mxCell>
        <mxCell id="8Qw6JCLBQOq7EYyBbXNo-4" value="&lt;div&gt;Call library functions&lt;/div&gt;" style="rounded=0;whiteSpace=wrap;html=1;fillColor=#d5e8d4;strokeColor=#82b366;fontStyle=1" vertex="1" parent="1">
          <mxGeometry x="120" y="510" width="80" height="60" as="geometry" />
        </mxCell>
        <mxCell id="8Qw6JCLBQOq7EYyBbXNo-5" value="" style="endArrow=classic;html=1;rounded=0;exitX=1;exitY=0.5;exitDx=0;exitDy=0;entryX=0;entryY=0.5;entryDx=0;entryDy=0;fontStyle=1" edge="1" parent="1" source="-NhYSNLFKO5urr56oJyv-1" target="8Qw6JCLBQOq7EYyBbXNo-3">
          <mxGeometry width="50" height="50" relative="1" as="geometry">
            <mxPoint x="35" y="370" as="sourcePoint" />
            <mxPoint x="35" y="420" as="targetPoint" />
          </mxGeometry>
        </mxCell>
        <mxCell id="8Qw6JCLBQOq7EYyBbXNo-6" value="" style="endArrow=classic;html=1;rounded=0;exitX=0.5;exitY=1;exitDx=0;exitDy=0;fontStyle=1" edge="1" parent="1" source="8Qw6JCLBQOq7EYyBbXNo-3" target="8Qw6JCLBQOq7EYyBbXNo-4">
          <mxGeometry width="50" height="50" relative="1" as="geometry">
            <mxPoint x="45" y="380" as="sourcePoint" />
            <mxPoint x="45" y="430" as="targetPoint" />
          </mxGeometry>
        </mxCell>
        <mxCell id="8Qw6JCLBQOq7EYyBbXNo-7" value="&lt;div&gt;Intercept lib.&amp;nbsp;&lt;/div&gt;&lt;div&gt;calls&lt;/div&gt;" style="rounded=0;whiteSpace=wrap;html=1;fillColor=#d5e8d4;strokeColor=#82b366;fontStyle=1" vertex="1" parent="1">
          <mxGeometry x="240" y="410" width="80" height="60" as="geometry" />
        </mxCell>
        <mxCell id="8Qw6JCLBQOq7EYyBbXNo-8" value="" style="endArrow=classic;html=1;rounded=0;exitX=1;exitY=0.5;exitDx=0;exitDy=0;entryX=0.5;entryY=1;entryDx=0;entryDy=0;fontStyle=1" edge="1" parent="1" source="8Qw6JCLBQOq7EYyBbXNo-4" target="8Qw6JCLBQOq7EYyBbXNo-7">
          <mxGeometry width="50" height="50" relative="1" as="geometry">
            <mxPoint x="170" y="490" as="sourcePoint" />
            <mxPoint x="170" y="530" as="targetPoint" />
            <Array as="points">
              <mxPoint x="280" y="540" />
            </Array>
          </mxGeometry>
        </mxCell>
        <mxCell id="8Qw6JCLBQOq7EYyBbXNo-9" value="&lt;div&gt;Run pre-call function&lt;/div&gt;" style="rounded=0;whiteSpace=wrap;html=1;fillColor=#e1d5e7;strokeColor=#9673a6;fontStyle=1" vertex="1" parent="1">
          <mxGeometry x="240" y="300" width="80" height="60" as="geometry" />
        </mxCell>
        <mxCell id="8Qw6JCLBQOq7EYyBbXNo-11" value="" style="endArrow=classic;html=1;rounded=0;exitX=0.5;exitY=0;exitDx=0;exitDy=0;entryX=0.5;entryY=1;entryDx=0;entryDy=0;fontStyle=1" edge="1" parent="1" source="8Qw6JCLBQOq7EYyBbXNo-7" target="8Qw6JCLBQOq7EYyBbXNo-9">
          <mxGeometry width="50" height="50" relative="1" as="geometry">
            <mxPoint x="170" y="490" as="sourcePoint" />
            <mxPoint x="170" y="520" as="targetPoint" />
          </mxGeometry>
        </mxCell>
        <mxCell id="8Qw6JCLBQOq7EYyBbXNo-12" value="&lt;div&gt;Request next tool function&lt;/div&gt;" style="rounded=0;whiteSpace=wrap;html=1;fillColor=#e1d5e7;strokeColor=#9673a6;fontStyle=1" vertex="1" parent="1">
          <mxGeometry x="350" y="300" width="80" height="60" as="geometry" />
        </mxCell>
        <mxCell id="8Qw6JCLBQOq7EYyBbXNo-13" value="" style="endArrow=classic;html=1;rounded=0;exitX=1;exitY=0.5;exitDx=0;exitDy=0;entryX=0;entryY=0.5;entryDx=0;entryDy=0;fontStyle=1" edge="1" parent="1" source="8Qw6JCLBQOq7EYyBbXNo-9" target="8Qw6JCLBQOq7EYyBbXNo-12">
          <mxGeometry width="50" height="50" relative="1" as="geometry">
            <mxPoint x="290" y="420" as="sourcePoint" />
            <mxPoint x="290" y="370" as="targetPoint" />
          </mxGeometry>
        </mxCell>
        <mxCell id="8Qw6JCLBQOq7EYyBbXNo-14" value="&lt;div&gt;Provide next tool function&lt;/div&gt;" style="rounded=0;whiteSpace=wrap;html=1;fillColor=#e1d5e7;strokeColor=#9673a6;fontStyle=1" vertex="1" parent="1">
          <mxGeometry x="350" y="410" width="80" height="60" as="geometry" />
        </mxCell>
        <mxCell id="8Qw6JCLBQOq7EYyBbXNo-15" value="" style="endArrow=classic;html=1;rounded=0;exitX=0.5;exitY=1;exitDx=0;exitDy=0;entryX=0.5;entryY=0;entryDx=0;entryDy=0;fontStyle=1" edge="1" parent="1" source="8Qw6JCLBQOq7EYyBbXNo-12" target="8Qw6JCLBQOq7EYyBbXNo-14">
          <mxGeometry width="50" height="50" relative="1" as="geometry">
            <mxPoint x="290" y="420" as="sourcePoint" />
            <mxPoint x="290" y="370" as="targetPoint" />
          </mxGeometry>
        </mxCell>
        <mxCell id="8Qw6JCLBQOq7EYyBbXNo-16" value="&lt;div&gt;Call next tool funciton&lt;/div&gt;" style="rounded=0;whiteSpace=wrap;html=1;fillColor=#e1d5e7;strokeColor=#9673a6;fontStyle=1" vertex="1" parent="1">
          <mxGeometry x="460" y="300" width="80" height="60" as="geometry" />
        </mxCell>
        <mxCell id="8Qw6JCLBQOq7EYyBbXNo-17" value="" style="endArrow=classic;html=1;rounded=0;exitX=1;exitY=0.5;exitDx=0;exitDy=0;entryX=0.5;entryY=1;entryDx=0;entryDy=0;fontStyle=1" edge="1" parent="1" source="8Qw6JCLBQOq7EYyBbXNo-14" target="8Qw6JCLBQOq7EYyBbXNo-16">
          <mxGeometry width="50" height="50" relative="1" as="geometry">
            <mxPoint x="210" y="550" as="sourcePoint" />
            <mxPoint x="290" y="480" as="targetPoint" />
            <Array as="points">
              <mxPoint x="500" y="440" />
            </Array>
          </mxGeometry>
        </mxCell>
        <mxCell id="8Qw6JCLBQOq7EYyBbXNo-18" value="&lt;div&gt;Call library at the bottom of the toolchain&lt;/div&gt;" style="rounded=0;whiteSpace=wrap;html=1;fillColor=#d5e8d4;strokeColor=#82b366;fontStyle=1" vertex="1" parent="1">
          <mxGeometry x="530" y="410" width="90" height="60" as="geometry" />
        </mxCell>
        <mxCell id="8Qw6JCLBQOq7EYyBbXNo-19" value="" style="endArrow=classic;html=1;rounded=0;exitX=1;exitY=0.5;exitDx=0;exitDy=0;entryX=0.5;entryY=0;entryDx=0;entryDy=0;fontStyle=1" edge="1" parent="1" source="8Qw6JCLBQOq7EYyBbXNo-16" target="8Qw6JCLBQOq7EYyBbXNo-18">
          <mxGeometry width="50" height="50" relative="1" as="geometry">
            <mxPoint x="440" y="450" as="sourcePoint" />
            <mxPoint x="510" y="370" as="targetPoint" />
            <Array as="points">
              <mxPoint x="575" y="330" />
            </Array>
          </mxGeometry>
        </mxCell>
        <mxCell id="8Qw6JCLBQOq7EYyBbXNo-20" value="&lt;div&gt;Run post call funciton&lt;/div&gt;" style="rounded=0;whiteSpace=wrap;html=1;fillColor=#e1d5e7;strokeColor=#9673a6;fontStyle=1" vertex="1" parent="1">
          <mxGeometry x="610" y="300" width="80" height="60" as="geometry" />
        </mxCell>
        <mxCell id="8Qw6JCLBQOq7EYyBbXNo-21" value="" style="endArrow=classic;html=1;rounded=0;exitX=1;exitY=0.5;exitDx=0;exitDy=0;entryX=0.5;entryY=1;entryDx=0;entryDy=0;fontStyle=1" edge="1" parent="1" source="8Qw6JCLBQOq7EYyBbXNo-18" target="8Qw6JCLBQOq7EYyBbXNo-20">
          <mxGeometry width="50" height="50" relative="1" as="geometry">
            <mxPoint x="550" y="340" as="sourcePoint" />
            <mxPoint x="585" y="420" as="targetPoint" />
            <Array as="points">
              <mxPoint x="650" y="440" />
            </Array>
          </mxGeometry>
        </mxCell>
        <mxCell id="8Qw6JCLBQOq7EYyBbXNo-22" value="&lt;div&gt;Return to application&lt;/div&gt;" style="rounded=0;whiteSpace=wrap;html=1;fillColor=#d5e8d4;strokeColor=#82b366;fontStyle=1" vertex="1" parent="1">
          <mxGeometry x="670" y="410" width="90" height="60" as="geometry" />
        </mxCell>
        <mxCell id="8Qw6JCLBQOq7EYyBbXNo-23" value="" style="endArrow=classic;html=1;rounded=0;exitX=1;exitY=0.5;exitDx=0;exitDy=0;entryX=0.5;entryY=0;entryDx=0;entryDy=0;fontStyle=1" edge="1" parent="1" source="8Qw6JCLBQOq7EYyBbXNo-20" target="8Qw6JCLBQOq7EYyBbXNo-22">
          <mxGeometry width="50" height="50" relative="1" as="geometry">
            <mxPoint x="630" y="450" as="sourcePoint" />
            <mxPoint x="660" y="370" as="targetPoint" />
            <Array as="points">
              <mxPoint x="715" y="330" />
            </Array>
          </mxGeometry>
        </mxCell>
        <mxCell id="8Qw6JCLBQOq7EYyBbXNo-24" value="&lt;div&gt;Call next operation&lt;/div&gt;" style="rounded=0;whiteSpace=wrap;html=1;fillColor=#d5e8d4;strokeColor=#82b366;fontStyle=1" vertex="1" parent="1">
          <mxGeometry x="670" y="510" width="90" height="60" as="geometry" />
        </mxCell>
        <mxCell id="8Qw6JCLBQOq7EYyBbXNo-25" value="" style="endArrow=classic;html=1;rounded=0;exitX=0.5;exitY=1;exitDx=0;exitDy=0;entryX=0.5;entryY=0;entryDx=0;entryDy=0;fontStyle=1" edge="1" parent="1" source="8Qw6JCLBQOq7EYyBbXNo-22" target="8Qw6JCLBQOq7EYyBbXNo-24">
          <mxGeometry width="50" height="50" relative="1" as="geometry">
            <mxPoint x="290" y="420" as="sourcePoint" />
            <mxPoint x="290" y="370" as="targetPoint" />
          </mxGeometry>
        </mxCell>
        <mxCell id="8Qw6JCLBQOq7EYyBbXNo-26" value="" style="endArrow=classic;html=1;rounded=0;exitX=0.5;exitY=1;exitDx=0;exitDy=0;entryX=0.5;entryY=1;entryDx=0;entryDy=0;fontStyle=1" edge="1" parent="1" source="8Qw6JCLBQOq7EYyBbXNo-24" target="8Qw6JCLBQOq7EYyBbXNo-4">
          <mxGeometry width="50" height="50" relative="1" as="geometry">
            <mxPoint x="300" y="430" as="sourcePoint" />
            <mxPoint x="300" y="380" as="targetPoint" />
            <Array as="points">
              <mxPoint x="715" y="590" />
              <mxPoint x="160" y="590" />
            </Array>
          </mxGeometry>
        </mxCell>
        <mxCell id="8Qw6JCLBQOq7EYyBbXNo-27" value="End of Application" style="ellipse;whiteSpace=wrap;html=1;fillColor=#dae8fc;strokeColor=#6c8ebf;fontStyle=1" vertex="1" parent="1">
          <mxGeometry x="800" y="500" width="80" height="80" as="geometry" />
        </mxCell>
        <mxCell id="8Qw6JCLBQOq7EYyBbXNo-28" value="" style="endArrow=classic;html=1;rounded=0;exitX=1;exitY=0.5;exitDx=0;exitDy=0;entryX=0;entryY=0.5;entryDx=0;entryDy=0;fontStyle=1" edge="1" parent="1" source="8Qw6JCLBQOq7EYyBbXNo-24" target="8Qw6JCLBQOq7EYyBbXNo-27">
          <mxGeometry width="50" height="50" relative="1" as="geometry">
            <mxPoint x="725" y="480" as="sourcePoint" />
            <mxPoint x="725" y="520" as="targetPoint" />
          </mxGeometry>
        </mxCell>
        <mxCell id="8Qw6JCLBQOq7EYyBbXNo-30" value="" style="endArrow=none;html=1;rounded=0;fontStyle=1;fontColor=#808080;" edge="1" parent="1">
          <mxGeometry width="50" height="50" relative="1" as="geometry">
            <mxPoint x="-160" y="490" as="sourcePoint" />
            <mxPoint x="890" y="490" as="targetPoint" />
          </mxGeometry>
        </mxCell>
        <mxCell id="8Qw6JCLBQOq7EYyBbXNo-31" value="" style="endArrow=none;html=1;rounded=0;fontStyle=1;fontColor=#808080;" edge="1" parent="1">
          <mxGeometry width="50" height="50" relative="1" as="geometry">
            <mxPoint x="-160" y="380" as="sourcePoint" />
            <mxPoint x="890" y="380" as="targetPoint" />
          </mxGeometry>
        </mxCell>
        <mxCell id="8Qw6JCLBQOq7EYyBbXNo-32" value="" style="endArrow=none;html=1;rounded=0;fontStyle=1;fontColor=#808080;" edge="1" parent="1">
          <mxGeometry width="50" height="50" relative="1" as="geometry">
            <mxPoint x="-160" y="600" as="sourcePoint" />
            <mxPoint x="890" y="600" as="targetPoint" />
          </mxGeometry>
        </mxCell>
        <mxCell id="8Qw6JCLBQOq7EYyBbXNo-33" value="" style="endArrow=none;html=1;rounded=0;fontStyle=1;fontColor=#808080;" edge="1" parent="1">
          <mxGeometry width="50" height="50" relative="1" as="geometry">
            <mxPoint x="-160" y="280" as="sourcePoint" />
            <mxPoint x="890" y="280" as="targetPoint" />
          </mxGeometry>
        </mxCell>
        <mxCell id="8Qw6JCLBQOq7EYyBbXNo-34" value="" style="endArrow=none;html=1;rounded=0;fontStyle=1;fontColor=#808080;" edge="1" parent="1">
          <mxGeometry width="50" height="50" relative="1" as="geometry">
            <mxPoint x="-160" y="280" as="sourcePoint" />
            <mxPoint x="-160" y="600" as="targetPoint" />
          </mxGeometry>
        </mxCell>
        <mxCell id="8Qw6JCLBQOq7EYyBbXNo-35" value="" style="endArrow=none;html=1;rounded=0;fontStyle=1;fontColor=#808080;" edge="1" parent="1">
          <mxGeometry width="50" height="50" relative="1" as="geometry">
            <mxPoint x="890" y="280" as="sourcePoint" />
            <mxPoint x="890" y="600" as="targetPoint" />
          </mxGeometry>
        </mxCell>
        <mxCell id="8Qw6JCLBQOq7EYyBbXNo-36" value="" style="endArrow=none;html=1;rounded=0;fontStyle=1;fontColor=#808080;" edge="1" parent="1">
          <mxGeometry width="50" height="50" relative="1" as="geometry">
            <mxPoint x="-120" y="280" as="sourcePoint" />
            <mxPoint x="-120" y="600" as="targetPoint" />
          </mxGeometry>
        </mxCell>
        <mxCell id="8Qw6JCLBQOq7EYyBbXNo-37" value="Application" style="text;html=1;align=center;verticalAlign=middle;whiteSpace=wrap;rounded=0;textDirection=vertical-rl;horizontal=0;rotation=-90;fontSize=15;fontStyle=1;fontColor=#808080;" vertex="1" parent="1">
          <mxGeometry x="-170" y="535" width="60" height="30" as="geometry" />
        </mxCell>
        <mxCell id="8Qw6JCLBQOq7EYyBbXNo-38" value="Interface" style="text;html=1;align=center;verticalAlign=middle;whiteSpace=wrap;rounded=0;textDirection=vertical-rl;horizontal=0;rotation=-90;fontSize=15;fontStyle=1;fontColor=#808080;" vertex="1" parent="1">
          <mxGeometry x="-170" y="420" width="60" height="30" as="geometry" />
        </mxCell>
        <mxCell id="8Qw6JCLBQOq7EYyBbXNo-39" value="Tools" style="text;html=1;align=center;verticalAlign=middle;whiteSpace=wrap;rounded=0;textDirection=vertical-rl;horizontal=0;rotation=-90;fontSize=15;fontStyle=1;fontColor=#808080;" vertex="1" parent="1">
          <mxGeometry x="-170" y="315" width="60" height="30" as="geometry" />
        </mxCell>
      </root>
    </mxGraphModel>
  </diagram>
</mxfile>
